<svg version="1.1" xmlns="http://www.w3.org/2000/svg" viewBox="0 0 594.26259508369 311.7998406409614" width="594.26259508369" height="311.7998406409614">
  <!-- svg-source:excalidraw -->
  
  <defs>
    <style class="style-fonts">
      @font-face {
        font-family: "Virgil";
        src: url("https://excalidraw.com/Virgil.woff2");
      }
      @font-face {
        font-family: "Cascadia";
        src: url("https://excalidraw.com/Cascadia.woff2");
      }
      @font-face {
        font-family: "Assistant";
        src: url("https://excalidraw.com/Assistant-Regular.woff2");
      }
    </style>
    
  </defs>
  <g stroke-linecap="round" transform="translate(157.9011484192481 81.39442583269985) rotate(0 53.41343515607366 24.645609659410695)"><path d="M12.32 0 C42.5 2.34, 77.24 -0.74, 94.5 0 M12.32 0 C33.65 0.14, 54.1 -1.04, 94.5 0 M94.5 0 C104.42 0.28, 108.47 4.31, 106.83 12.32 M94.5 0 C103.19 -1.58, 108.87 3.03, 106.83 12.32 M106.83 12.32 C105.24 22.95, 107.3 28.59, 106.83 36.97 M106.83 12.32 C106.88 21, 106.09 30.25, 106.83 36.97 M106.83 36.97 C105.74 45.31, 102.22 49.53, 94.5 49.29 M106.83 36.97 C104.88 45.24, 102.69 48.24, 94.5 49.29 M94.5 49.29 C63.72 47.61, 36.72 47.49, 12.32 49.29 M94.5 49.29 C71.93 49.15, 51.2 48.51, 12.32 49.29 M12.32 49.29 C3.63 48.26, -0.95 44.86, 0 36.97 M12.32 49.29 C3.5 48.87, 1.23 44.73, 0 36.97 M0 36.97 C-1.26 30.84, 0.94 21.38, 0 12.32 M0 36.97 C0.47 29.24, 0.54 21.7, 0 12.32 M0 12.32 C-0.63 4.18, 3.64 0.24, 12.32 0 M0 12.32 C0.96 3.26, 6.29 0.52, 12.32 0" stroke="#1e1e1e" stroke-width="2" fill="none"></path></g><g transform="translate(192.85459974963817 93.54003549211055) rotate(0 18.459983825683594 12.5)"><text x="18.459983825683594" y="17.52" font-family="Virgil, Segoe UI Emoji" font-size="20px" fill="#1e1e1e" text-anchor="middle" style="white-space: pre;" direction="ltr" dominant-baseline="alphabetic">Bot</text></g><g stroke-linecap="round" transform="translate(300.161553918535 81.30671637921103) rotate(0 53.41343515607366 24.645609659410695)"><path d="M12.32 0 C43.51 -0.62, 76.21 -0.33, 94.5 0 M12.32 0 C42.26 1.2, 71.62 0.18, 94.5 0 M94.5 0 C102.44 0.43, 106.06 3.57, 106.83 12.32 M94.5 0 C101.21 0.71, 104.93 4.29, 106.83 12.32 M106.83 12.32 C105.54 19.81, 108.6 24.35, 106.83 36.97 M106.83 12.32 C106.83 18.37, 106.57 25.26, 106.83 36.97 M106.83 36.97 C106.46 45.43, 101.91 49.99, 94.5 49.29 M106.83 36.97 C105.59 43.82, 104.94 49.28, 94.5 49.29 M94.5 49.29 C77.3 50.43, 59.01 48.45, 12.32 49.29 M94.5 49.29 C70.28 48.94, 46.55 49.02, 12.32 49.29 M12.32 49.29 C5.69 47.56, 0.97 45.33, 0 36.97 M12.32 49.29 C5.62 47.78, 0.07 47.33, 0 36.97 M0 36.97 C1.95 31.72, -0.4 28.2, 0 12.32 M0 36.97 C-0.16 31.12, 0.52 24.08, 0 12.32 M0 12.32 C-0.5 5.9, 2.23 0.15, 12.32 0 M0 12.32 C0.2 3.49, 2.98 1.93, 12.32 0" stroke="#1e1e1e" stroke-width="2" fill="none"></path></g><g transform="translate(324.7150113524407 93.45232603862172) rotate(0 28.85997772216797 12.5)"><text x="28.85997772216797" y="17.52" font-family="Virgil, Segoe UI Emoji" font-size="20px" fill="#1e1e1e" text-anchor="middle" style="white-space: pre;" direction="ltr" dominant-baseline="alphabetic">Human</text></g><g stroke-linecap="round" transform="translate(467.02461262592954 28.748614989647393) rotate(0 53.41343515607372 24.645609659410695)"><path d="M12.32 0 C44.81 3.38, 74.85 1.15, 94.5 0 C99.61 2.33, 107.68 3.76, 106.83 12.32 C103.57 24.61, 109.91 27.84, 106.83 36.97 C109.46 44.52, 105.82 46.57, 94.5 49.29 C74.33 52.35, 58.04 48.94, 12.32 49.29 C6.97 48.21, 3.37 48.13, 0 36.97 C-3.41 32.07, -2.33 27.91, 0 12.32 C3.4 2.74, 5.82 0.77, 12.32 0" stroke="none" stroke-width="0" fill="#b2f2bb"></path><path d="M12.32 0 C37.4 2.3, 62 -1.19, 94.5 0 M12.32 0 C40.65 -0.39, 66.25 -1.25, 94.5 0 M94.5 0 C101.19 1.93, 105.51 3.94, 106.83 12.32 M94.5 0 C100.51 0.73, 105.8 2.06, 106.83 12.32 M106.83 12.32 C107.27 17.17, 105.09 23.77, 106.83 36.97 M106.83 12.32 C105.8 22.24, 105.85 31.28, 106.83 36.97 M106.83 36.97 C105.61 43.47, 103.7 49.94, 94.5 49.29 M106.83 36.97 C107.95 47.24, 103.38 47.93, 94.5 49.29 M94.5 49.29 C68.4 47.12, 41.53 48.48, 12.32 49.29 M94.5 49.29 C64.56 49.34, 34.91 49.95, 12.32 49.29 M12.32 49.29 C3 49.57, 0.44 45.89, 0 36.97 M12.32 49.29 C2.49 48.27, -0.03 46.77, 0 36.97 M0 36.97 C-0.57 29.15, 1.07 23.45, 0 12.32 M0 36.97 C-0.51 28.85, -0.11 19.78, 0 12.32 M0 12.32 C-1.79 2.34, 3.89 -1.15, 12.32 0 M0 12.32 C-1.39 3.12, 1.92 1.57, 12.32 0" stroke="#1e1e1e" stroke-width="2" fill="none"></path></g><g transform="translate(482.3080886755579 40.89422464905812) rotate(0 38.12995910644531 12.5)"><text x="38.12995910644531" y="17.52" font-family="Virgil, Segoe UI Emoji" font-size="20px" fill="#1e1e1e" text-anchor="middle" style="white-space: pre;" direction="ltr" dominant-baseline="alphabetic">Success</text></g><g stroke-linecap="round" transform="translate(463.69171763171494 142.24123514124767) rotate(0 53.41343515607366 24.645609659410695)"><path d="M12.32 0 C41.06 4.17, 79.17 -2.13, 94.5 0 C105.35 -0.67, 109.93 1.39, 106.83 12.32 C105.93 20.34, 109.15 22.78, 106.83 36.97 C109.69 44.1, 106.09 52.23, 94.5 49.29 C73.04 48.54, 55.75 49.89, 12.32 49.29 C7.51 47.92, 1.72 45.96, 0 36.97 C-1.75 29.74, -3.19 16.72, 0 12.32 C-3.08 5.64, 0.58 -1.2, 12.32 0" stroke="none" stroke-width="0" fill="#ffc9c9"></path><path d="M12.32 0 C36.08 2.57, 61.58 0.47, 94.5 0 M12.32 0 C28.19 -0.36, 45.78 0.62, 94.5 0 M94.5 0 C103.18 -0.76, 105.11 4.34, 106.83 12.32 M94.5 0 C104.28 -1.13, 106.09 2.02, 106.83 12.32 M106.83 12.32 C105.39 20.11, 107.59 31.98, 106.83 36.97 M106.83 12.32 C106.45 21.04, 106.52 28.54, 106.83 36.97 M106.83 36.97 C106.4 43.81, 101.1 49.28, 94.5 49.29 M106.83 36.97 C108.36 43.62, 103.6 49.75, 94.5 49.29 M94.5 49.29 C70.97 49.86, 50.08 50.28, 12.32 49.29 M94.5 49.29 C76.31 49.36, 55.84 49.61, 12.32 49.29 M12.32 49.29 C3.32 49.07, 0.86 46.86, 0 36.97 M12.32 49.29 C4.88 48.34, 1.4 43.77, 0 36.97 M0 36.97 C-1.74 27.56, -0.17 20.52, 0 12.32 M0 36.97 C0.79 31.98, 0.74 24.35, 0 12.32 M0 12.32 C0.16 5.32, 3.06 -0.03, 12.32 0 M0 12.32 C-1.99 5.6, 4.65 -0.22, 12.32 0" stroke="#1e1e1e" stroke-width="2" fill="none"></path></g><g transform="translate(499.8751646896442 154.38684480065837) rotate(0 17.22998809814453 12.5)"><text x="17.22998809814453" y="17.52" font-family="Virgil, Segoe UI Emoji" font-size="20px" fill="#1e1e1e" text-anchor="middle" style="white-space: pre;" direction="ltr" dominant-baseline="alphabetic">Fail</text></g><g stroke-linecap="round"><g transform="translate(270.1658442517996 103.5184962235995) rotate(0 11.226464765378068 0.536217357196108)"><path d="M-0.46 -0.24 C3.37 -0.11, 18.92 0.97, 22.66 1.2 M0.31 0.83 C4.11 0.75, 18.55 0.14, 22.34 0.29" stroke="#1e1e1e" stroke-width="2" fill="none"></path></g><g transform="translate(270.1658442517996 103.5184962235995) rotate(0 11.226464765378068 0.536217357196108)"><path d="M11.8 4.2 C14.14 3.49, 17.11 1.84, 22.34 0.29 M11.8 4.2 C14.85 3.08, 18.28 1.85, 22.34 0.29" stroke="#1e1e1e" stroke-width="2" fill="none"></path></g><g transform="translate(270.1658442517996 103.5184962235995) rotate(0 11.226464765378068 0.536217357196108)"><path d="M11.75 -3.49 C14.14 -2.3, 17.12 -2.05, 22.34 0.29 M11.75 -3.49 C14.82 -2.26, 18.26 -1.13, 22.34 0.29" stroke="#1e1e1e" stroke-width="2" fill="none"></path></g></g><mask></mask><g stroke-linecap="round"><g transform="translate(413.8151971500249 103.902415196103) rotate(0 16.466294086868402 0.13158053065701836)"><path d="M0.25 -0.03 C5.81 -0.03, 27.31 0.14, 32.83 0.17 M-0.28 -0.52 C5.25 -0.45, 26.76 0.62, 32.35 0.82" stroke="#1e1e1e" stroke-width="2" fill="none"></path></g><g transform="translate(413.8151971500249 103.902415196103) rotate(0 16.466294086868402 0.13158053065701836)"><path d="M16.65 5.79 C19.77 4.6, 22.84 4.43, 32.35 0.82 M16.65 5.79 C20.76 4.54, 25.19 2.96, 32.35 0.82" stroke="#1e1e1e" stroke-width="2" fill="none"></path></g><g transform="translate(413.8151971500249 103.902415196103) rotate(0 16.466294086868402 0.13158053065701836)"><path d="M17.13 -5.47 C20.17 -4.38, 23.14 -2.27, 32.35 0.82 M17.13 -5.47 C21.11 -3.64, 25.42 -2.13, 32.35 0.82" stroke="#1e1e1e" stroke-width="2" fill="none"></path></g></g><mask></mask><g stroke-linecap="round"><g transform="translate(351.557727852932 138.75465791904807) rotate(0 -68.76210772890869 17.102813463840718)"><path d="M0.54 -0.04 C-10.94 5.66, -45.99 35.19, -68.91 34.99 C-91.83 34.79, -125.72 4.61, -136.98 -1.25 M-0.64 -1.1 C-12.27 4.73, -47.04 36.43, -69.84 36.57 C-92.65 36.72, -125.88 6.28, -137.46 -0.22" stroke="#1e1e1e" stroke-width="2" fill="none"></path></g><g transform="translate(351.557727852932 138.75465791904807) rotate(0 -68.76210772890869 17.102813463840718)"><path d="M-113.32 6.31 C-120.55 4.54, -127.47 3.48, -137.46 -0.22 M-113.32 6.31 C-119.23 4.2, -124.74 2.8, -137.46 -0.22" stroke="#1e1e1e" stroke-width="2" fill="none"></path></g><g transform="translate(351.557727852932 138.75465791904807) rotate(0 -68.76210772890869 17.102813463840718)"><path d="M-123.17 20.3 C-127.59 14.35, -131.6 9.16, -137.46 -0.22 M-123.17 20.3 C-126.7 14.58, -129.7 9.62, -137.46 -0.22" stroke="#1e1e1e" stroke-width="2" fill="none"></path></g></g><mask></mask><g stroke-linecap="round" transform="translate(10 70.61547864926177) rotate(0 49.44137422516792 42.5)"><path d="M31.08 3.45 C38.56 0.33, 49.26 -0.36, 58.11 1.06 C66.96 2.48, 77.68 6.7, 84.19 11.95 C90.7 17.2, 95.22 25.2, 97.16 32.55 C99.1 39.9, 98.54 48.72, 95.82 56.05 C93.09 63.38, 87.62 71.8, 80.8 76.53 C73.97 81.26, 63.87 83.76, 54.88 84.41 C45.89 85.07, 34.78 83.91, 26.87 80.45 C18.97 76.99, 11.95 70.25, 7.45 63.66 C2.94 57.07, -0.31 48.46, -0.16 40.89 C-0.01 33.31, 2.32 24.83, 8.34 18.2 C14.35 11.57, 30.38 3.93, 35.92 1.11 C41.46 -1.72, 41.43 0.6, 41.56 1.24 M29.9 2.75 C37.66 -0.57, 48.91 0.48, 57.94 1.88 C66.97 3.28, 77.43 6.37, 84.07 11.14 C90.72 15.91, 95.65 23.14, 97.81 30.51 C99.97 37.87, 99.67 47.98, 97.04 55.33 C94.41 62.69, 88.98 69.49, 82.04 74.62 C75.11 79.75, 64.42 85.29, 55.44 86.11 C46.46 86.93, 36.08 83.01, 28.16 79.52 C20.23 76.03, 12.43 71.29, 7.88 65.16 C3.34 59.02, 0.53 50.51, 0.86 42.7 C1.19 34.89, 5.16 24.68, 9.84 18.29 C14.53 11.91, 25.71 6.82, 28.96 4.38 C32.2 1.94, 28.55 3.34, 29.3 3.65" stroke="none" stroke-width="0" fill="#ffec99"></path><path d="M32.95 2.24 C40.56 -0.83, 51.78 -0.58, 60.57 1.23 C69.36 3.03, 79.56 7.53, 85.67 13.08 C91.78 18.62, 95.46 27, 97.23 34.51 C98.99 42.02, 99.35 51.12, 96.26 58.12 C93.17 65.13, 85.8 71.92, 78.67 76.55 C71.54 81.18, 62.49 85.38, 53.46 85.9 C44.44 86.43, 32.36 83.56, 24.51 79.69 C16.67 75.83, 10.3 69.58, 6.4 62.73 C2.5 55.88, 0.42 46.22, 1.12 38.58 C1.82 30.95, 4.7 23.04, 10.62 16.9 C16.55 10.77, 31.15 4.39, 36.68 1.78 C42.22 -0.83, 43.47 0.78, 43.83 1.23 M61.44 2.78 C69.71 4.11, 80.14 8.88, 86.29 14.35 C92.45 19.83, 96.66 28.25, 98.35 35.61 C100.05 42.97, 99.7 51.57, 96.44 58.53 C93.18 65.49, 86.48 73.08, 78.79 77.38 C71.09 81.67, 59.46 84.21, 50.29 84.3 C41.13 84.39, 31.52 81.93, 23.78 77.92 C16.05 73.92, 7.96 67.11, 3.89 60.28 C-0.18 53.44, -1.77 44.57, -0.62 36.9 C0.53 29.23, 5.19 20.23, 10.8 14.27 C16.41 8.31, 24.68 3.11, 33.05 1.14 C41.41 -0.82, 56.21 2.45, 60.98 2.49 C65.75 2.53, 61.51 0.65, 61.68 1.39" stroke="#1e1e1e" stroke-width="2" fill="none"></path></g><g transform="translate(31.341066737905066 100.56344044883352) rotate(0 28.139976501464844 12.5)"><text x="28.139976501464844" y="17.52" font-family="Virgil, Segoe UI Emoji" font-size="20px" fill="#1e1e1e" text-anchor="middle" style="white-space: pre;" direction="ltr" dominant-baseline="alphabetic">Caller</text></g><g stroke-linecap="round"><g transform="translate(114.75097402989968 107.90355598969137) rotate(0 17.43090008344177 -0.4609287362038401)"><path d="M0.06 0.43 C5.91 0.2, 28.9 -1, 34.68 -1.15 M-0.57 0.17 C5.22 0, 28.34 -0.32, 34.16 -0.57" stroke="#1e1e1e" stroke-width="2" fill="none"></path></g><g transform="translate(114.75097402989968 107.90355598969137) rotate(0 17.43090008344177 -0.4609287362038401)"><path d="M17.94 5.83 C22.34 4.06, 25.04 2.66, 34.16 -0.57 M17.94 5.83 C24.34 3.42, 30.35 1.18, 34.16 -0.57" stroke="#1e1e1e" stroke-width="2" fill="none"></path></g><g transform="translate(114.75097402989968 107.90355598969137) rotate(0 17.43090008344177 -0.4609287362038401)"><path d="M17.62 -6.09 C22.12 -5.12, 24.89 -3.77, 34.16 -0.57 M17.62 -6.09 C24.13 -3.98, 30.26 -1.69, 34.16 -0.57" stroke="#1e1e1e" stroke-width="2" fill="none"></path></g></g><mask></mask><g transform="translate(106.13081496892084 46.41540030707452) rotate(0 26.1463623046875 16.02933964202382)"><text x="0" y="11.233361221130293" font-family="Virgil, Segoe UI Emoji" font-size="12.823471713619057px" fill="#1e1e1e" text-anchor="start" style="white-space: pre;" direction="ltr" dominant-baseline="alphabetic">submits </text><text x="0" y="27.262700863154116" font-family="Virgil, Segoe UI Emoji" font-size="12.823471713619057px" fill="#1e1e1e" text-anchor="start" style="white-space: pre;" direction="ltr" dominant-baseline="alphabetic">request</text></g><g transform="translate(255.99834575862405 42.662178979881276) rotate(0 26.216873168945312 16.02933964202382)"><text x="0" y="11.233361221130293" font-family="Virgil, Segoe UI Emoji" font-size="12.823471713619057px" fill="#1e1e1e" text-anchor="start" style="white-space: pre;" direction="ltr" dominant-baseline="alphabetic">waiting </text><text x="0" y="27.262700863154116" font-family="Virgil, Segoe UI Emoji" font-size="12.823471713619057px" fill="#1e1e1e" text-anchor="start" style="white-space: pre;" direction="ltr" dominant-baseline="alphabetic">approval</text></g><g transform="translate(238.6417548743359 186.1832918520418) rotate(0 54.24775695800781 16.029339642023828)"><text x="0" y="11.233361221130293" font-family="Virgil, Segoe UI Emoji" font-size="12.823471713619057px" fill="#1e1e1e" text-anchor="start" style="white-space: pre;" direction="ltr" dominant-baseline="alphabetic">human re-request</text><text x="0" y="27.262700863154116" font-family="Virgil, Segoe UI Emoji" font-size="12.823471713619057px" fill="#1e1e1e" text-anchor="start" style="white-space: pre;" direction="ltr" dominant-baseline="alphabetic">bot inference</text></g><g stroke-linecap="round" transform="translate(455.26203309674906 9.999999999999993) rotate(0 64.50028099347048 99.80814417861235)"><path d="M32 0 C51.27 -1.12, 72.33 1.82, 97 0 M32 0 C53.53 -0.71, 74.12 0.61, 97 0 M97 0 C118.55 -0.43, 127.33 9.32, 129 32 M97 0 C119.61 1.66, 127.32 12.48, 129 32 M129 32 C129.76 65.81, 130.04 102.31, 129 167.62 M129 32 C128.92 83.78, 129.83 134.72, 129 167.62 M129 167.62 C127.33 190.14, 117.29 198.32, 97 199.62 M129 167.62 C127.83 188.19, 118.32 197.37, 97 199.62 M97 199.62 C80.18 199.09, 66.59 197.57, 32 199.62 M97 199.62 C75.21 199.34, 53.93 199.97, 32 199.62 M32 199.62 C10.6 199.47, 0.77 187.61, 0 167.62 M32 199.62 C9.77 199.09, 2.29 186.85, 0 167.62 M0 167.62 C-0.41 114.03, -1.9 62.5, 0 32 M0 167.62 C-0.45 121.09, -0.42 72.61, 0 32 M0 32 C-0.48 10.55, 10.87 0.62, 32 0 M0 32 C-0.79 12.62, 11.02 1.14, 32 0" stroke="#1e1e1e" stroke-width="2" fill="none"></path></g><g transform="translate(392.0064484770271 43.58629118845323) rotate(0 28.409095764160156 16.02933964202382)"><text x="0" y="11.233361221130293" font-family="Virgil, Segoe UI Emoji" font-size="12.823471713619057px" fill="#1e1e1e" text-anchor="start" style="white-space: pre;" direction="ltr" dominant-baseline="alphabetic">human</text><text x="0" y="27.262700863154116" font-family="Virgil, Segoe UI Emoji" font-size="12.823471713619057px" fill="#1e1e1e" text-anchor="start" style="white-space: pre;" direction="ltr" dominant-baseline="alphabetic">continues</text></g><g stroke-linecap="round"><g transform="translate(515.0315061269998 218.15482147778815) rotate(0 -225.19409595591213 -5.932687490219152)"><path d="M1.01 0.09 C-44.13 7, -196.11 51.68, -271.15 42.59 C-346.2 33.5, -419.49 -38.56, -449.25 -54.44 M0.08 -0.9 C-45.23 6.2, -197.43 49.82, -272.34 41.02 C-347.26 32.23, -419.96 -37.69, -449.42 -53.67" stroke="#1e1e1e" stroke-width="2" fill="none"></path></g><g transform="translate(515.0315061269998 218.15482147778815) rotate(0 -225.19409595591213 -5.932687490219152)"><path d="M-425.26 -47.25 C-431.82 -49.58, -436.87 -48.69, -449.42 -53.67 M-425.26 -47.25 C-431.3 -49.02, -436.35 -50, -449.42 -53.67" stroke="#1e1e1e" stroke-width="2" fill="none"></path></g><g transform="translate(515.0315061269998 218.15482147778815) rotate(0 -225.19409595591213 -5.932687490219152)"><path d="M-435.03 -33.22 C-439.04 -39.5, -441.4 -42.46, -449.42 -53.67 M-435.03 -33.22 C-439.07 -38.04, -442.03 -42.03, -449.42 -53.67" stroke="#1e1e1e" stroke-width="2" fill="none"></path></g></g><mask></mask><g transform="translate(224.47496285398847 269.74116135691384) rotate(0 51.42735290527344 16.029339642023814)"><text x="0" y="11.233361221130293" font-family="Virgil, Segoe UI Emoji" font-size="12.823471713619057px" fill="#1e1e1e" text-anchor="start" style="white-space: pre;" direction="ltr" dominant-baseline="alphabetic">caller retrieves </text><text x="0" y="27.262700863154116" font-family="Virgil, Segoe UI Emoji" font-size="12.823471713619057px" fill="#1e1e1e" text-anchor="start" style="white-space: pre;" direction="ltr" dominant-baseline="alphabetic">job status</text></g></svg>